<svg width="429" height="234" viewBox="0 0 429 234" fill="none" xmlns="http://www.w3.org/2000/svg">
<path fill-rule="evenodd" clip-rule="evenodd" d="M111.992 92.5796C112.459 92.5796 112.837 92.9585 112.837 93.4258C112.837 93.8765 112.485 94.2449 112.042 94.2706L111.992 94.2721H81.2986C60.3315 94.2721 43.2831 111.125 42.9442 132.029L42.9391 132.663V232.859C42.9391 233.326 42.5605 233.705 42.0936 233.705C41.6433 233.705 41.2752 233.353 41.2495 232.909L41.248 232.859V132.663C41.248 110.754 58.8288 92.9391 80.6365 92.585L81.2986 92.5796H111.992Z" fill="#181C14"/>
<path fill-rule="evenodd" clip-rule="evenodd" d="M155.856 144.4C156.447 144.202 157.086 144.521 157.283 145.112L157.453 145.629L157.721 146.462C157.778 146.641 157.836 146.826 157.897 147.017C158.356 148.476 158.815 150.001 159.244 151.52C159.437 152.206 159.621 152.877 159.792 153.528L159.893 153.916C160.567 156.515 161.012 158.669 161.169 160.253C161.23 160.873 160.777 161.425 160.158 161.487C159.538 161.548 158.986 161.095 158.925 160.475C158.787 159.074 158.381 157.091 157.764 154.689L157.711 154.482C157.515 153.727 157.302 152.942 157.074 152.133C156.704 150.825 156.312 149.51 155.916 148.238L155.746 147.695C155.647 147.381 155.553 147.084 155.463 146.806L155.144 145.828C154.947 145.237 155.266 144.597 155.856 144.4Z" fill="#181C14"/>
<path fill-rule="evenodd" clip-rule="evenodd" d="M197.458 140.705C198.061 140.74 198.525 141.244 198.519 141.841L198.492 142.394C198.474 142.758 198.457 143.174 198.441 143.639L198.435 143.815C198.259 149.02 198.33 154.897 198.825 160.662C198.878 161.283 198.419 161.83 197.798 161.883C197.178 161.936 196.632 161.476 196.578 160.855C196.09 155.166 196.007 149.387 196.166 144.221L196.194 143.384C196.204 143.095 196.215 142.826 196.226 142.577L196.266 141.765C196.302 141.161 196.805 140.697 197.402 140.703L197.458 140.705Z" fill="#181C14"/>
<path fill-rule="evenodd" clip-rule="evenodd" d="M228.312 109.379C228.646 109.052 229.181 109.058 229.507 109.393C229.696 109.586 229.821 109.833 229.941 110.173L229.983 110.298C230.067 110.557 230.152 110.876 230.25 111.297L230.371 111.834C230.481 112.339 230.704 113.382 230.755 113.618C231.179 115.559 231.567 117.048 232.071 118.518C233.923 123.919 236.711 126.894 241.036 126.824C241.503 126.817 241.888 127.19 241.895 127.657C241.903 128.124 241.53 128.509 241.064 128.517C235.831 128.601 232.533 125.083 230.472 119.068C229.965 117.589 229.574 116.108 229.157 114.227L228.676 112.002L228.607 111.698C228.504 111.256 228.421 110.949 228.346 110.735C228.323 110.669 228.302 110.616 228.283 110.577L228.27 110.55C228.266 110.54 228.27 110.548 228.297 110.575C227.971 110.241 227.977 109.705 228.312 109.379Z" fill="#181C14"/>
<path fill-rule="evenodd" clip-rule="evenodd" d="M114.979 115.118C110.357 117.149 103.705 121.126 98.3503 129.335C105.904 126.232 131.862 149.475 150.267 144.2C141.727 143.298 123.378 129.814 114.979 115.118Z" fill="#181C14"/>
<path fill-rule="evenodd" clip-rule="evenodd" d="M129.611 77.2599C130.032 77.0592 130.537 77.2387 130.737 77.6608C130.938 78.0829 130.758 78.5878 130.337 78.7885C119.963 83.7241 114.01 89.7788 112.037 96.6771C110.309 102.716 111.66 109.365 115.653 116.215C115.953 116.73 115.642 117.385 115.053 117.477C112.695 117.846 109.26 119.865 104.635 124.135L104.264 124.48C98.184 130.175 90.664 139.186 81.5656 152.052C66.6045 173.185 60.1657 192.837 63.8223 207.189C67.7655 222.666 83.2098 231.521 110.062 231.985C110.528 231.993 110.9 232.378 110.892 232.846C110.884 233.313 110.499 233.685 110.032 233.677C82.4961 233.201 66.3453 223.941 62.1836 207.607C58.3793 192.675 64.9663 172.571 80.1855 151.074L80.7443 150.286C89.7474 137.62 97.2165 128.723 103.3 123.065L103.488 122.892C107.625 119.071 110.932 116.924 113.52 116.109L113.631 116.075L113.582 115.986C109.888 109.214 108.661 102.56 110.356 96.4074L110.411 96.2112C112.532 88.7954 118.832 82.3883 129.611 77.2599Z" fill="#181C14"/>
<path fill-rule="evenodd" clip-rule="evenodd" d="M250.34 47.5903C250.746 47.2459 251.361 47.3602 251.62 47.8156L251.65 47.8718L251.817 48.205C251.95 48.4688 252.113 48.7852 252.304 49.1554L252.673 49.8627C253.252 50.9671 253.953 52.2796 254.782 53.8052C254.91 54.0353 255.032 54.1018 255.569 54.2048L255.639 54.2179C256.76 54.4264 257.27 54.5902 258.019 55.1335C259.009 55.8512 259.895 57.0481 260.731 58.8865L260.753 58.9389L260.771 58.9925L278.443 117.525L278.456 117.573L278.617 118.25C280.627 126.769 281.671 133.184 281.8 139.069L281.805 139.301C281.939 146.821 280.471 152.987 277.051 157.949C269.188 169.359 251.185 173.992 220.156 171.167L219.732 171.127L219.705 171.144C219.596 171.205 219.473 171.243 219.341 171.251L219.291 171.252C218.841 171.252 218.473 170.9 218.447 170.456L218.446 170.406V170.237C218.446 169.738 218.875 169.347 219.371 169.394C250.433 172.348 268.152 167.881 275.659 156.988C278.855 152.351 280.242 146.524 280.114 139.331C280.012 133.603 279.009 127.325 277.048 118.966L276.817 117.99L259.17 59.5388L259.127 59.4451C258.447 57.9853 257.775 57.0732 257.093 56.5531L257.027 56.504C256.576 56.177 256.27 56.0646 255.526 55.9191L255.33 55.8819C254.283 55.6873 253.747 55.4251 253.301 54.6207L252.645 53.41C252.018 52.2474 251.478 51.2289 251.019 50.3495L250.678 49.6925L250.599 49.5387L250.547 49.5771C248.049 51.3903 244.868 52.5569 241.16 53.176L240.932 53.2133C236.839 53.8682 232.488 53.8253 228.374 53.3612C228.007 53.3197 227.659 53.2766 227.333 53.2328L226.865 53.1672L226.841 53.6195C226.819 54.0458 226.798 54.5299 226.777 55.0748L226.733 56.3002L226.696 57.5484C226.689 57.8101 226.682 58.079 226.675 58.3553C226.629 60.2581 226.011 61.322 224.467 62.8049L224.047 63.2014C222.326 64.8159 221.777 65.8719 221.982 68.2269L221.99 68.3158L229.734 109.829C229.841 110.406 229.344 110.91 228.774 110.82L228.726 110.812L207.193 106.214C206.858 106.142 206.599 105.876 206.537 105.539C205.723 101.098 204.42 96.6359 202.574 92.5091C200.278 87.3749 197.271 83.0494 193.487 79.7941C193.132 79.4894 193.092 78.9551 193.397 78.6007C193.701 78.2463 194.235 78.2059 194.589 78.5105C198.578 81.9423 201.726 86.4704 204.118 91.8176C205.911 95.827 207.204 100.128 208.048 104.427L208.095 104.676L227.838 108.891L220.317 68.57L220.31 68.5143C220.149 66.839 220.369 65.498 220.944 64.3615C221.367 63.523 221.858 62.9439 222.781 62.069L223.113 61.7575C224.471 60.4839 224.93 59.7696 224.982 58.4079L225.013 57.2413C225.02 56.9828 225.028 56.7315 225.035 56.4873L225.073 55.3794C225.107 54.4453 225.143 53.6715 225.179 53.0446L225.213 52.4858L225.242 52.1072C225.286 51.6279 225.719 51.2856 226.19 51.3456L226.556 51.4075C226.645 51.422 226.742 51.4373 226.847 51.4534C227.35 51.5303 227.925 51.6073 228.563 51.6793C232.538 52.1277 236.745 52.1692 240.665 51.542C244.648 50.9047 247.947 49.619 250.34 47.5903Z" fill="#181C14"/>
<path fill-rule="evenodd" clip-rule="evenodd" d="M222.069 207.697C222.519 207.691 222.892 208.037 222.925 208.481L222.927 208.531L223.293 232.649C223.301 233.116 222.928 233.501 222.461 233.508C222.011 233.515 221.637 233.168 221.605 232.724L221.603 232.674L221.236 208.556C221.229 208.089 221.602 207.704 222.069 207.697Z" fill="#181C14"/>
<path fill-rule="evenodd" clip-rule="evenodd" d="M217.403 107.53C213.993 106.12 209.483 105.584 206.495 105.104C207.144 108.602 207.313 111.648 207.228 113.708C206.58 128.573 200.774 134.356 199.393 139.828C217.262 133.256 218.643 115.823 217.403 107.53Z" fill="#181C14"/>
<path fill-rule="evenodd" clip-rule="evenodd" d="M190.656 194.383C190.289 197.514 189.556 198.84 182.228 202.62C180.34 203.579 176.394 205.666 171.123 208.318C172.223 221.886 172.843 231.872 172.843 231.872L194.855 232.182C194.855 232.182 194.235 209.503 193.784 186.457C192.488 188.967 190.881 192.493 190.656 194.383Z" fill="#181C14"/>
<path fill-rule="evenodd" clip-rule="evenodd" d="M193.22 141.944C193.502 129.786 188.852 117.854 184.342 109.899C183.609 120.985 181.27 133.848 178.733 138.051C166.896 129.842 158.018 125.132 150.915 121.38C146.434 114.159 142.657 107.699 141.022 103.016C141.05 102.311 141.078 101.578 141.078 100.873C140.797 100.901 140.543 100.929 140.318 100.957C142.29 107.473 146.546 116.726 155.368 129.137C157.059 131.112 158.722 133.34 160.301 135.794C162.414 139.095 164.331 148.432 165.994 160.053C175.802 158.699 183.384 158.417 184.765 160.505L193.277 162.141C192.967 145.893 193.079 148.601 193.22 141.944Z" fill="#181C14"/>
<path fill-rule="evenodd" clip-rule="evenodd" d="M204.381 182.271C204.839 182.177 205.285 182.472 205.379 182.93C205.469 183.372 205.198 183.803 204.769 183.917L204.72 183.929L191.643 186.609C191.185 186.702 190.738 186.407 190.645 185.949C190.554 185.508 190.825 185.076 191.255 184.962L191.303 184.951L204.381 182.271Z" fill="#181C14"/>
<path fill-rule="evenodd" clip-rule="evenodd" d="M194.463 160.975C202.602 158.275 209.543 159.945 215.177 164.89C219.158 168.384 222.18 173.318 223.668 177.544L223.762 177.816C225.148 181.887 226.931 189.782 227.146 192.618L227.328 195.063C227.376 195.722 227.419 196.322 227.46 196.931L227.512 197.705C227.628 199.492 227.716 201.149 227.775 202.728L227.792 203.236C227.892 206.252 227.868 208.749 227.689 210.638L227.664 210.896C227.391 213.516 226.843 214.943 225.516 215.03C224.091 215.118 223.01 213.363 221.721 209.98C220.87 207.745 220.016 204.92 219.29 202.128C219.173 201.675 219.444 201.213 219.896 201.096C220.348 200.978 220.809 201.249 220.927 201.702C221.638 204.439 222.476 207.21 223.301 209.378L223.427 209.703C223.885 210.873 224.324 211.811 224.728 212.466C224.931 212.795 225.119 213.042 225.28 213.199L225.335 213.25L225.377 213.285L225.398 213.252C225.444 213.175 225.494 213.069 225.544 212.938L225.569 212.87C225.758 212.338 225.906 211.528 226.005 210.479C226.186 208.574 226.202 205.967 226.085 202.791L226.058 202.116C226.001 200.757 225.923 199.334 225.824 197.814L225.773 197.046C225.742 196.592 225.711 196.142 225.677 195.669L225.452 192.648C225.21 189.82 223.408 181.909 222.073 178.106C220.675 174.134 217.802 169.445 214.062 166.162C208.81 161.553 202.413 160.047 194.762 162.66L194.726 162.671L194.689 162.681L181.865 165.812C181.411 165.923 180.954 165.645 180.843 165.191C180.736 164.753 180.991 164.311 181.416 164.181L181.464 164.168L194.253 161.045L194.463 160.975Z" fill="#181C14"/>
<path fill-rule="evenodd" clip-rule="evenodd" d="M204.414 179.689C204.459 179.223 204.873 178.883 205.338 178.929C205.803 178.975 206.142 179.389 206.097 179.854L206.08 180.014C206.056 180.233 206.025 180.473 205.984 180.753L205.883 181.415C205.819 181.819 205.7 182.562 205.666 182.775L205.603 183.185C205.351 184.86 205.225 186.118 205.215 187.375C205.199 189.372 205.511 191.017 206.222 192.311C206.447 192.721 206.297 193.235 205.888 193.46C205.479 193.685 204.965 193.536 204.74 193.126C203.87 191.542 203.506 189.623 203.524 187.361C203.535 185.957 203.678 184.578 203.962 182.729L204.245 180.946L204.309 180.518C204.357 180.189 204.391 179.923 204.414 179.689Z" fill="#181C14"/>
<path fill-rule="evenodd" clip-rule="evenodd" d="M222.546 191.624C222.994 191.677 223.318 192.07 223.292 192.514L223.285 192.583L223.269 192.716C223.253 192.836 223.235 192.975 223.213 193.131L223.163 193.474C223.11 193.825 223.05 194.203 222.98 194.602C222.716 196.123 222.383 197.646 221.975 199.072L221.884 199.383C220.774 203.123 219.346 205.518 217.309 205.984C215.058 206.499 213.491 205.858 212.654 204.458C212.438 204.097 212.291 203.717 212.198 203.337C212.142 203.105 212.115 202.916 212.106 202.79C212.075 202.324 212.427 201.92 212.893 201.888C213.342 201.858 213.733 202.185 213.789 202.626L213.793 202.676C213.796 202.71 213.809 202.804 213.841 202.935C213.896 203.16 213.983 203.385 214.105 203.589C214.56 204.351 215.385 204.688 216.933 204.334C218.175 204.05 219.396 201.933 220.349 198.606C220.739 197.244 221.06 195.778 221.314 194.312L221.378 193.934C221.429 193.625 221.475 193.331 221.515 193.057L221.562 192.724L221.608 192.366C221.663 191.902 222.083 191.57 222.546 191.624Z" fill="#181C14"/>
<path fill-rule="evenodd" clip-rule="evenodd" d="M217.882 191.213C218.339 191.306 218.635 191.753 218.542 192.211L218.513 192.345C218.49 192.45 218.463 192.571 218.432 192.706C218.343 193.093 218.236 193.522 218.112 193.984C217.758 195.306 217.336 196.629 216.845 197.869L216.725 198.167C215.376 201.465 213.778 203.561 211.726 203.879C209.505 204.224 208.001 203.525 207.237 202.136C207.022 201.745 206.886 201.333 206.811 200.923C206.765 200.673 206.749 200.47 206.749 200.335C206.749 199.868 207.128 199.489 207.595 199.489C208.045 199.489 208.413 199.841 208.439 200.285L208.442 200.37C208.445 200.421 208.454 200.507 208.474 200.617C208.519 200.86 208.598 201.101 208.718 201.319C209.132 202.072 209.934 202.444 211.467 202.207C212.764 202.006 214.111 200.179 215.273 197.245C215.738 196.072 216.141 194.809 216.479 193.546L216.565 193.22C216.634 192.954 216.696 192.701 216.752 192.465L216.818 192.178L216.884 191.873C216.978 191.415 217.424 191.119 217.882 191.213Z" fill="#181C14"/>
<path fill-rule="evenodd" clip-rule="evenodd" d="M200.651 190.838C202.419 189.345 204.716 189.971 206.986 193.595C207.234 193.991 207.115 194.513 206.719 194.761C206.323 195.01 205.802 194.89 205.554 194.494C204.536 192.87 203.634 192.053 202.892 191.851C202.45 191.73 202.082 191.844 201.741 192.132C201.677 192.186 201.622 192.239 201.576 192.288L201.552 192.314L201.554 192.346C201.558 192.398 201.564 192.456 201.573 192.522L201.584 192.591C201.638 192.932 201.755 193.337 201.95 193.806C202.506 195.142 203.58 196.732 205.308 198.57C206.199 199.52 206.835 199.579 207.559 198.988C208.298 198.386 209.039 197.155 209.713 195.499C210.091 194.569 210.425 193.567 210.709 192.564L210.792 192.269C210.844 192.077 210.892 191.894 210.936 191.722L211.003 191.451L211.053 191.237C211.155 190.781 211.606 190.494 212.062 190.595C212.502 190.693 212.785 191.117 212.714 191.556L212.701 191.619L212.647 191.849C212.635 191.897 212.623 191.949 212.609 192.003L212.54 192.276C212.479 192.511 212.411 192.762 212.336 193.026C212.036 194.085 211.683 195.144 211.279 196.137C210.507 198.035 209.641 199.475 208.627 200.301C207.199 201.464 205.563 201.313 204.076 199.73C202.216 197.75 201.028 195.992 200.389 194.457C199.964 193.435 199.825 192.629 199.864 192.052L199.869 191.987C199.874 191.935 199.88 191.892 199.886 191.859C199.906 191.754 199.945 191.654 200.001 191.563C200.127 191.363 200.341 191.1 200.651 190.838Z" fill="#181C14"/>
<path fill-rule="evenodd" clip-rule="evenodd" d="M190.825 192.408C180.847 184.313 177.493 163.946 181.693 159.489C181.862 158.079 185.103 160.448 187.048 160.674C191.755 161.21 193.784 161.351 193.784 161.351C191.867 167.218 194.009 174.327 196.18 179.376C197.448 182.394 198.773 184.764 199.421 185.864C199.055 186.062 197.533 186.795 193.925 188.375C191.867 189.306 191.445 190.857 190.825 192.408Z" fill="#181C14"/>
<path fill-rule="evenodd" clip-rule="evenodd" d="M111.724 161C114.747 159.991 118.761 159.398 122.289 159.718C127.178 160.162 130.859 162.261 132.637 166.344C132.824 166.773 132.628 167.271 132.2 167.458C131.772 167.645 131.273 167.449 131.087 167.02C129.588 163.578 126.464 161.797 122.136 161.404C118.861 161.107 115.075 161.666 112.259 162.605C111.816 162.753 111.337 162.513 111.19 162.07C111.042 161.627 111.281 161.147 111.724 161Z" fill="#181C14"/>
<path fill-rule="evenodd" clip-rule="evenodd" d="M148.327 162.234C170.154 157.917 183.264 156.691 185.471 160.039C185.488 160.065 185.503 160.091 185.517 160.118L185.537 160.16L195.909 183.403C196.01 183.629 196.006 183.886 195.903 184.107L195.871 184.169L195.686 184.509L195.551 184.762C195.434 184.98 195.309 185.216 195.178 185.468C194.651 186.477 194.125 187.53 193.634 188.573C193.386 189.101 193.153 189.613 192.938 190.106C192.123 191.976 191.605 193.481 191.477 194.432L191.467 194.51C191.032 198.226 189.665 199.718 183.001 203.186L182.337 203.532C180.843 204.321 174.415 207.782 171.679 209.223C165.269 212.597 159.118 215.681 152.844 218.602C145.619 221.967 138.693 224.894 132.121 227.302C123.592 230.427 115.873 232.598 109.108 233.667C108.646 233.74 108.214 233.424 108.141 232.963C108.068 232.501 108.383 232.068 108.844 231.995C115.488 230.946 123.106 228.803 131.539 225.713C138.063 223.322 144.946 220.413 152.131 217.068C158.105 214.286 163.971 211.354 170.06 208.162L171.566 207.368C174.8 205.655 181.095 202.265 181.813 201.896L182.39 201.597C188.322 198.504 189.392 197.375 189.765 194.498L189.787 194.314C189.922 193.154 190.487 191.497 191.388 189.43C191.61 188.921 191.85 188.394 192.104 187.852C192.606 186.786 193.142 185.713 193.679 184.685L193.913 184.24L194.194 183.712L184.026 160.925L184.011 160.905C183.168 159.859 179.138 159.534 172.704 160.108L172.305 160.144C166.202 160.715 158.16 162.014 148.655 163.894C145.397 164.538 142.01 165.243 138.521 165.998C132.638 167.272 126.733 168.631 121.062 169.996L119.309 170.42C117.596 170.836 116.014 171.226 114.586 171.583L113.628 171.823L112.202 172.185C111.75 172.301 111.289 172.028 111.173 171.576C111.061 171.139 111.31 170.695 111.734 170.559L111.799 170.541L113.892 170.012L115.658 169.572C116.782 169.294 117.984 169 119.255 168.691L119.604 168.607C125.61 167.153 131.898 165.7 138.164 164.344C141.662 163.586 145.059 162.88 148.327 162.234Z" fill="#181C14"/>
<path fill-rule="evenodd" clip-rule="evenodd" d="M141.535 86.4585L141.585 86.4587C142.052 86.4736 142.418 86.8644 142.403 87.3316L141.92 102.255L141.9 102.884L141.935 102.982C143.356 106.932 146.229 112.156 151.344 120.421L151.54 120.739L152.887 121.452C162.584 126.608 169.049 130.389 177.56 136.198L178.463 136.818L178.528 136.681C180.652 132.121 182.729 121.059 183.481 110.51L183.527 109.843C183.558 109.377 183.96 109.024 184.426 109.055C184.892 109.086 185.245 109.489 185.214 109.955C184.433 121.772 182.001 134.32 179.485 138.489C179.233 138.906 178.682 139.025 178.281 138.747L177.612 138.286C168.202 131.81 161.464 127.894 150.549 122.128C150.416 122.058 150.304 121.954 150.225 121.826L149.42 120.525C144.438 112.437 141.651 107.302 140.252 103.296C140.218 103.197 140.202 103.094 140.205 102.99L140.713 87.2774C140.727 86.8269 141.091 86.47 141.535 86.4585Z" fill="#181C14"/>
<path fill-rule="evenodd" clip-rule="evenodd" d="M137.871 65.785C138.336 65.7415 138.749 66.0836 138.792 66.5489C138.835 67.0143 138.494 67.4267 138.029 67.4701C136.209 67.6401 134.319 68.1575 132.814 69.1848C130.661 70.6548 129.722 72.9224 130.409 76.3358C130.951 79.0722 132.346 80.5554 134.467 81.108C136.167 81.5507 138.25 81.3744 140.458 80.7624C140.908 80.6376 141.374 80.9017 141.499 81.3521C141.623 81.8025 141.36 82.2687 140.91 82.3935C138.441 83.0778 136.082 83.2774 134.041 82.746C131.291 82.0297 129.418 80.0376 128.75 76.6675C127.929 72.5856 129.151 69.6375 131.861 67.7867C133.649 66.5658 135.792 65.9792 137.871 65.785Z" fill="#181C14"/>
<path fill-rule="evenodd" clip-rule="evenodd" d="M193.76 50.0482C194.223 49.9878 194.647 50.3146 194.707 50.7781C196.045 61.0573 195.772 72.9161 194.341 83.9995C194.281 84.463 193.857 84.7902 193.394 84.7303C192.931 84.6704 192.604 84.246 192.664 83.7825C194.078 72.8334 194.347 61.1161 193.03 50.9966C192.97 50.5332 193.296 50.1085 193.76 50.0482Z" fill="#181C14"/>
<path fill-rule="evenodd" clip-rule="evenodd" d="M192.664 83.7527C192.725 83.2893 193.149 82.963 193.612 83.0239C194.075 83.0848 194.402 83.5098 194.341 83.9732L194.222 84.856C193.758 88.2585 193.239 91.2937 192.722 93.6625C192.622 94.1191 192.172 94.4084 191.715 94.3087C191.259 94.209 190.97 93.758 191.07 93.3014L191.157 92.8968C191.678 90.4303 192.202 87.2729 192.664 83.7527Z" fill="#181C14"/>
<path fill-rule="evenodd" clip-rule="evenodd" d="M144.118 67.8147L137.917 68.2661C137.422 68.3021 137.068 68.7538 137.142 69.2381L137.169 69.3683L137.862 72.5889L138.109 73.7251C138.737 76.6096 139.374 79.4943 139.991 82.2349L140.359 83.8594L140.809 85.8304C141.906 90.5977 142.777 94.1407 143.35 96.0936L143.426 96.35C145.417 102.983 147.147 105.399 154.086 110.389C158.056 113.244 164.072 115.167 169.878 115.346C176.517 115.552 182.267 113.534 185.919 109.204C188.228 106.457 190.046 102.825 191.442 98.5232C192.567 95.056 193.357 91.3499 193.872 87.6452C194.052 86.3493 194.184 85.1456 194.277 84.0641L194.3 83.7874C194.311 83.653 194.321 83.5247 194.33 83.4026L194.359 82.9807L194.375 82.689C194.393 82.3006 194.144 81.9499 193.772 81.839C192.106 81.3425 189.36 80.9939 185.916 80.7558C184.88 80.6842 183.839 80.6271 182.827 80.5827L182.323 80.5616C181.963 80.5472 181.627 80.5352 181.318 80.5254L180.641 80.5064L180.609 80.5063C173.362 80.6151 166.512 81.4126 160.25 82.6746C157.988 83.1304 155.954 83.6177 154.172 84.1068L153.745 84.2255C153.4 84.3223 153.08 84.4154 152.784 84.5038L152.488 84.5933L152.469 84.5292C150.957 79.347 146.598 69.9115 144.781 68.0651C144.608 67.8883 144.365 67.7967 144.118 67.8147ZM143.82 69.5333L143.85 69.571C145.714 71.9736 150.004 81.486 151.08 85.8703C151.195 86.3367 151.672 86.611 152.128 86.4839L152.546 86.3481L152.729 86.2902C153.194 86.1449 153.743 85.9825 154.372 85.8074L154.871 85.6705C156.555 85.2145 158.467 84.7605 160.584 84.3339L161.005 84.2499C166.915 83.0839 173.352 82.3387 180.148 82.2071L180.614 82.1988L181.115 82.2125C181.459 82.2229 181.841 82.2362 182.255 82.2528C183.409 82.299 184.609 82.3621 185.8 82.4444L186.418 82.489C188.937 82.6783 191.036 82.9331 192.485 83.2554L192.642 83.2913L192.615 83.6516C192.608 83.7382 192.6 83.8274 192.592 83.9193L192.548 84.4138C192.461 85.3359 192.345 86.3415 192.197 87.4123C191.695 91.0256 190.925 94.6376 189.834 98.0005C188.5 102.112 186.775 105.556 184.625 108.113C181.346 112.002 176.094 113.846 169.931 113.655C164.451 113.485 158.761 111.667 155.073 109.015L154.68 108.731C148.504 104.249 146.954 102.101 145.158 96.2335L144.996 95.6972C144.404 93.6948 143.456 89.8206 142.256 84.5725L141.924 83.1145L141.641 81.8625C141.167 79.7578 140.681 77.5675 140.197 75.3575L139.456 71.9559L139.008 69.8836L143.82 69.5333Z" fill="#181C14"/>
<path fill-rule="evenodd" clip-rule="evenodd" d="M175.971 96.1619C175.971 96.1619 180.565 95.231 182.454 97.0928L175.971 96.1619Z" fill="white"/>
<path fill-rule="evenodd" clip-rule="evenodd" d="M176.613 95.206C177.635 95.0768 178.694 95.037 179.699 95.1424C181.101 95.2894 182.251 95.7052 183.047 96.49C183.38 96.818 183.384 97.3538 183.056 97.6867C182.729 98.0197 182.193 98.0237 181.861 97.6957C181.386 97.2283 180.579 96.9364 179.523 96.8257C178.665 96.7357 177.729 96.7709 176.825 96.8852C176.673 96.9043 176.533 96.9245 176.406 96.9448L176.177 96.9841C176.161 96.9871 176.148 96.9896 176.139 96.9914C175.681 97.0841 175.235 96.788 175.143 96.3299C175.05 95.8718 175.346 95.4253 175.804 95.3326L175.986 95.2985C176.147 95.2706 176.359 95.2382 176.613 95.206Z" fill="#181C14"/>
<path fill-rule="evenodd" clip-rule="evenodd" d="M181.739 73.9107C182.186 73.86 182.591 74.1686 182.667 74.6072L182.674 74.6564L184.365 89.6068C184.43 90.1798 183.917 90.6432 183.361 90.5323L183.314 90.5214L178.071 89.1674C177.619 89.0506 177.347 88.5891 177.464 88.1365C177.576 87.7001 178.009 87.4315 178.445 87.5175L178.494 87.5286L182.547 88.5753L180.994 74.8468C180.943 74.399 181.251 73.9933 181.689 73.9177L181.739 73.9107Z" fill="#181C14"/>
<path fill-rule="evenodd" clip-rule="evenodd" d="M187.33 78.8137C188.17 78.8137 188.852 77.7528 188.852 76.4442C188.852 75.1356 188.17 74.0747 187.33 74.0747C186.489 74.0747 185.808 75.1356 185.808 76.4442C185.808 77.7528 186.489 78.8137 187.33 78.8137Z" fill="#181C14"/>
<path fill-rule="evenodd" clip-rule="evenodd" d="M172.617 78.5315C173.458 78.5315 174.139 77.4706 174.139 76.162C174.139 74.8533 173.458 73.7925 172.617 73.7925C171.777 73.7925 171.095 74.8533 171.095 76.162C171.095 77.4706 171.777 78.5315 172.617 78.5315Z" fill="#181C14"/>
<path fill-rule="evenodd" clip-rule="evenodd" d="M166.89 61.7701C168.498 60.5913 170.463 60.006 172.742 60.3467C173.204 60.4157 173.523 60.8464 173.454 61.3087C173.385 61.7709 172.954 62.0897 172.492 62.0206C170.685 61.7505 169.158 62.2054 167.89 63.1355C167.532 63.3976 167.224 63.6783 166.968 63.957L166.885 64.0484C166.809 64.1344 166.753 64.2035 166.717 64.2512L166.687 64.2915C166.42 64.6747 165.893 64.7684 165.51 64.5009C165.127 64.2333 165.033 63.7057 165.301 63.3225C165.381 63.208 165.521 63.0304 165.724 62.8107C166.051 62.4546 166.44 62.1004 166.89 61.7701Z" fill="#181C14"/>
<path fill-rule="evenodd" clip-rule="evenodd" d="M186.946 60.0392C187.815 59.903 188.738 59.8986 189.628 60.1187C191.129 60.4901 192.258 61.4524 192.76 63.0778C192.898 63.5243 192.648 63.9981 192.202 64.1361C191.756 64.274 191.282 64.0239 191.144 63.5773C190.828 62.5533 190.176 61.9979 189.222 61.7618C188.583 61.6036 187.873 61.607 187.208 61.7113L187.103 61.7287C187.022 61.7428 186.957 61.7559 186.911 61.7662L186.866 61.7771C186.414 61.8947 185.953 61.6233 185.835 61.171C185.718 60.7187 185.989 60.2566 186.441 60.139C186.546 60.1116 186.719 60.0748 186.946 60.0392Z" fill="#181C14"/>
<path fill-rule="evenodd" clip-rule="evenodd" d="M203.592 48.4617C203.226 47.3615 203.649 46.0357 204.41 44.71L204.213 44.4843L203.254 47.1641C203.254 47.1641 200.267 48.4617 199.28 44.6253C198.97 43.4406 199.675 42.0302 200.774 40.6198L200.746 40.5916C196.603 41.5506 188.457 43.1303 187.724 41.4942C186.682 39.1812 201.338 33.0318 205.819 31.0854C208.102 30.0699 216.022 27.8979 220.306 27.2773C222.054 27.0234 225.21 26.7977 228.818 27.1644C229.128 24.6257 228.705 22.0588 227.352 19.5764C225.971 17.0095 223.068 13.2296 220.503 11.8474C195.052 -1.66437 182.651 21.1561 182.651 21.1561C182.651 21.1561 179.072 11.3396 167.46 11.0011C162.724 10.8601 158.102 12.7218 154.748 16.0786C145.25 25.613 151.591 36.3885 151.591 36.3885C151.591 36.3885 147.166 34.1319 141.191 37.0091C134.061 40.4505 130.481 48.5463 132.341 56.2471C134.314 64.4275 137.95 72.213 137.95 72.213C161.118 75.7954 167.037 53.0314 163.626 50.0977C168.756 53.9058 178.001 56.4446 193.643 54.8649C197.223 54.4982 201.62 53.0878 206.101 50.944C205.199 50.8594 204.213 50.2952 203.592 48.4617Z" fill="#181C14"/>
<path fill-rule="evenodd" clip-rule="evenodd" d="M225.09 45.4686C225.527 45.3597 225.97 45.6126 226.102 46.0374L226.115 46.0853L229.594 60.0644L249.66 54.1102C250.091 53.9821 250.544 54.2151 250.695 54.6337L250.711 54.681C250.839 55.1131 250.606 55.5664 250.188 55.7173L250.14 55.7329L229.227 61.9387C228.781 62.071 228.316 61.8181 228.18 61.3795L228.166 61.3318L224.474 46.4943C224.361 46.0408 224.637 45.5816 225.09 45.4686Z" fill="#181C14"/>
<path fill-rule="evenodd" clip-rule="evenodd" d="M220.183 26.44C224.689 25.7762 230.731 26.0421 235.912 27.7647C243.369 30.2439 248.351 35.3888 249.709 43.6524L249.741 43.8566L252.718 54.9846C252.832 55.4113 252.599 55.8508 252.189 55.999L252.141 56.0148L232.243 61.9103C231.795 62.043 231.325 61.7873 231.192 61.3391C231.064 60.907 231.297 60.4537 231.715 60.303L231.763 60.2875L250.871 54.6257L248.097 44.2517C248.093 44.237 248.089 44.2221 248.086 44.2072L248.078 44.1621C246.884 36.4232 242.344 31.6865 235.379 29.3709C230.556 27.7676 224.882 27.495 220.638 28.0846L220.427 28.1148C216.497 28.6841 208.704 30.7587 206.235 31.8268L203.416 33.0477C203.116 33.1786 202.826 33.3057 202.532 33.4346L201.848 33.7363C200.385 34.3844 199.034 34.9994 197.746 35.6078C196.586 36.1562 195.512 36.6831 194.531 37.1882L194.163 37.3791C192.285 38.3587 190.811 39.2315 189.811 39.9727C189.258 40.3821 188.867 40.7403 188.654 41.0241C188.633 41.0512 188.615 41.0767 188.6 41.1004L188.568 41.1509L188.618 41.1709C188.826 41.2478 189.14 41.305 189.546 41.3342C190.363 41.3929 191.488 41.3362 192.858 41.1755C195.106 40.9119 197.888 40.3845 200.555 39.767C201.01 39.6617 201.464 39.9455 201.57 40.4008C201.675 40.8562 201.391 41.3107 200.936 41.416C198.314 42.023 195.585 42.5444 193.315 42.8252L193.055 42.8565C189.538 43.2689 187.528 43.1244 186.954 41.8422C186.187 40.1414 188.517 38.3921 193.603 35.7631L193.758 35.6832C194.757 35.1687 195.847 34.6335 197.024 34.0773L197.629 33.7931C198.849 33.2235 200.128 32.6454 201.506 32.0376L202.923 31.4167L205.648 30.2374C208.348 29.0966 216.157 27.0232 220.183 26.44Z" fill="#181C14"/>
<path fill-rule="evenodd" clip-rule="evenodd" d="M230.468 42.7326C230.859 42.4766 231.383 42.586 231.639 42.977C231.895 43.368 231.785 43.8925 231.395 44.1486C230.004 45.0598 227.044 46.5265 224.193 47.6709C220.55 49.1335 217.399 49.9829 215.239 49.9282C214.773 49.9164 214.404 49.528 214.416 49.0608C214.427 48.5936 214.815 48.2244 215.282 48.2363C217.148 48.2835 220.121 47.4824 223.564 46.1001L224.032 45.9094C226.638 44.8353 229.256 43.5272 230.468 42.7326Z" fill="#181C14"/>
<path fill-rule="evenodd" clip-rule="evenodd" d="M208.547 33.8249C208.81 34.2111 208.71 34.7376 208.324 35.0007L208.083 35.1691L207.968 35.251C207.679 35.4575 207.356 35.6943 207.008 35.9576C206.014 36.7098 205.021 37.5212 204.096 38.3593C202.944 39.4033 201.984 40.4133 201.283 41.3517C200.313 42.6497 199.912 43.7174 200.099 44.4415C200.392 45.5736 200.86 46.1703 201.44 46.4155C201.84 46.5846 202.295 46.5842 202.727 46.4741C202.769 46.4633 202.808 46.4523 202.843 46.4413L202.924 46.4136C203.354 46.231 203.85 46.4317 204.032 46.8619C204.215 47.2921 204.014 47.7889 203.585 47.9715C203.487 48.0128 203.338 48.0648 203.144 48.1142C202.386 48.3076 201.572 48.3083 200.782 47.9748C199.687 47.512 198.88 46.4828 198.461 44.8647C198.115 43.5172 198.681 42.0077 199.929 40.338C200.704 39.3007 201.735 38.216 202.961 37.1048C203.926 36.23 204.957 35.3879 205.988 34.6076L206.254 34.408C206.428 34.2783 206.595 34.1556 206.754 34.0404L207.108 33.7868L207.372 33.6021C207.758 33.3389 208.284 33.4387 208.547 33.8249Z" fill="#181C14"/>
<path fill-rule="evenodd" clip-rule="evenodd" d="M210.983 37.6586C211.267 38.0066 211.229 38.5129 210.904 38.8142L210.855 38.856L210.696 38.9898L210.583 39.0856C210.354 39.2816 210.099 39.5068 209.823 39.7573C209.036 40.4734 208.249 41.2473 207.516 42.0482C206.567 43.0859 205.783 44.0899 205.222 45.0217C204.421 46.3548 204.138 47.4419 204.393 48.1887C204.736 49.1956 205.193 49.7522 205.721 49.9941C206.15 50.1902 206.634 50.1789 207.104 50.0312L207.191 50.0022C207.256 49.9791 207.305 49.9589 207.332 49.9461L207.346 49.9392C207.76 49.7238 208.271 49.8853 208.486 50.3C208.701 50.7147 208.54 51.2256 208.125 51.4411C208.013 51.4996 207.838 51.5743 207.611 51.6457C206.777 51.908 205.882 51.9289 205.018 51.533C204.038 51.0846 203.277 50.1582 202.792 48.7348C202.34 47.4074 202.74 45.8676 203.774 44.1489C204.399 43.1082 205.249 42.0195 206.269 40.9052C207.039 40.0628 207.863 39.2535 208.686 38.5047L208.928 38.2865C209.086 38.1454 209.236 38.0131 209.378 37.8903L209.545 37.747L209.794 37.5386C210.155 37.2429 210.688 37.2966 210.983 37.6586Z" fill="#181C14"/>
<path fill-rule="evenodd" clip-rule="evenodd" d="M212.969 42.2856C213.326 41.9844 213.859 42.03 214.16 42.3874C214.461 42.7447 214.415 43.2786 214.058 43.5798L213.913 43.7056L213.839 43.7707C213.658 43.9298 213.457 44.1125 213.239 44.3155C212.618 44.8959 211.997 45.5213 211.419 46.1657C210.724 46.9417 210.141 47.6912 209.709 48.3869L209.607 48.5543C208.505 50.3965 208.662 51.3575 210.329 51.821C213.617 52.7348 215.82 52.776 217.138 52.3359C217.225 52.3068 217.3 52.2776 217.365 52.2491L217.397 52.2346L217.407 52.2084C217.524 51.8859 217.547 51.5638 217.441 51.2825L217.417 51.2229C217.106 50.537 215.995 49.9879 213.703 49.8131C213.237 49.7775 212.889 49.3709 212.924 48.9049C212.96 48.4389 213.366 48.0899 213.831 48.1255C216.675 48.3424 218.342 49.1661 218.957 50.5239C219.3 51.281 219.259 52.06 218.998 52.7833C218.922 52.9945 218.842 53.1578 218.779 53.2647C218.727 53.3523 218.66 53.4299 218.581 53.4936C218.408 53.6324 218.11 53.7952 217.673 53.9413C216.008 54.4974 213.468 54.45 209.877 53.4517C206.816 52.6009 206.549 50.2705 208.272 47.4938C208.763 46.7039 209.404 45.8795 210.16 45.0355C210.774 44.3505 211.43 43.6906 212.085 43.0783L212.309 42.871C212.382 42.8043 212.453 42.7401 212.521 42.6784L212.838 42.3982C212.895 42.3483 212.939 42.3105 212.969 42.2856Z" fill="#181C14"/>
<path fill-rule="evenodd" clip-rule="evenodd" d="M223.265 62.7353C227.268 68.0384 254.353 64.0328 258.806 57.1782C256.664 54.2446 254.973 55.9089 254.015 54.1882C251.76 50.0415 250.858 48.208 250.858 48.208C246.151 52.2136 238.767 52.9188 233.271 52.806C230.002 52.7777 227.296 52.4392 226.028 52.27C225.999 52.6931 225.887 54.3856 225.774 58.3066C225.746 60.5914 224.477 61.6069 223.265 62.7353Z" fill="#181C14"/>
<path fill-rule="evenodd" clip-rule="evenodd" d="M371.151 154.073H261.569C260.131 154.073 258.891 155.061 258.553 156.471L243.305 221.011H203.593C203.593 221.011 201.394 232.379 214.218 232.379H354.128C355.565 232.379 356.805 231.392 357.143 229.982L374.167 157.881C374.618 155.935 373.152 154.073 371.151 154.073Z" fill="#181C14"/>
<path fill-rule="evenodd" clip-rule="evenodd" d="M362.104 181.492C355.171 181.492 349.731 175.568 350.295 168.657C350.717 163.552 350.774 160.392 351.309 158.023C352.042 154.751 358.327 150.265 365.684 144.849C369.545 142.029 372.222 139.377 373.716 136.923C375.21 134.469 375.971 131.451 375.971 127.84C375.971 123.383 374.562 119.857 371.715 117.29C368.897 114.723 365.458 113.454 361.428 113.454C353.423 113.454 348.068 117.685 345.306 126.176C343.474 131.817 337.809 135.259 331.946 134.441C324.139 133.341 319.489 125.217 322.392 117.882C325.013 111.253 328.761 105.837 333.637 101.606C341.726 94.6106 351.647 91.1128 363.316 91.1128C375.238 91.1128 385.244 94.5542 393.305 101.409C401.366 108.292 405.424 117.008 405.424 127.558C405.424 140.646 398.716 151.591 385.272 160.392C379.438 164.257 375.886 167.275 374.646 169.447C374.224 170.18 373.885 171.111 373.603 172.268C372.363 177.656 367.628 181.492 362.104 181.492ZM363.711 216.837H362.64C355.114 216.837 348.998 210.716 348.998 203.184C348.998 195.652 355.114 189.531 362.64 189.531H363.711C371.236 189.531 377.352 195.652 377.352 203.184C377.352 210.744 371.264 216.837 363.711 216.837Z" fill="#181C14"/>
<path fill-rule="evenodd" clip-rule="evenodd" d="M83.7508 65.9794C82.2006 66.6564 80.425 65.8666 79.8894 64.2587C79.4949 63.074 79.213 62.3688 79.1003 61.8046C78.9593 61.0148 79.9176 59.4069 81.0168 57.4887C81.6087 56.5014 81.9469 55.6552 82.0315 54.95C82.1442 54.273 82.0033 53.5114 81.6651 52.7215C81.2423 51.7343 80.5941 51.0855 79.7203 50.8034C78.8466 50.4931 77.9729 50.5495 77.071 50.9444C75.2953 51.706 74.5061 53.1729 74.7034 55.3167C74.8444 56.7553 73.9143 58.0529 72.5332 58.4478C70.7012 58.9556 68.8692 57.6016 68.8128 55.6834C68.7564 53.9627 69.0665 52.383 69.7429 50.9726C70.8703 48.6313 72.7305 46.9106 75.3235 45.7823C77.9729 44.6258 80.5095 44.4283 82.9898 45.1899C85.4419 45.9516 87.1893 47.4748 88.204 49.8161C89.4723 52.7215 89.0213 55.7962 86.8793 59.0402C85.9492 60.4506 85.47 61.4661 85.3855 62.0585C85.3573 62.2559 85.3855 62.5098 85.4137 62.7919C85.6673 64.1459 84.9909 65.4435 83.7508 65.9794ZM87.4994 73.6803L87.2457 73.7931C85.5828 74.5265 83.6381 73.7367 82.9053 72.0724C82.1725 70.4081 82.9617 68.4617 84.6246 67.7283L84.8782 67.6155C86.5411 66.8821 88.4859 67.6719 89.2187 69.3362C89.9515 71.0005 89.1905 72.9469 87.4994 73.6803Z" fill="#181C14"/>
<path fill-rule="evenodd" clip-rule="evenodd" d="M98.7451 29.8727C96.4621 29.7598 94.771 27.7006 95.081 25.444C95.3065 23.7797 95.3911 22.736 95.6166 21.9461C95.9266 20.8742 98.0686 19.5202 100.605 17.8559C101.93 16.9815 102.86 16.1634 103.396 15.4018C103.931 14.612 104.241 13.6529 104.297 12.44C104.382 10.9731 103.987 9.78839 103.086 8.88573C102.212 7.98306 101.084 7.50352 99.7597 7.4189C97.1103 7.27786 95.2783 8.57543 94.2073 11.3116C93.5027 13.1452 91.5579 14.1607 89.6414 13.794C87.1047 13.2862 85.6955 10.5218 86.7947 8.15231C87.7812 6.00849 89.1059 4.28778 90.7969 2.9902C93.5872 0.846379 96.9131 -0.140909 100.774 0.0847565C104.692 0.310422 107.933 1.608 110.47 4.03391C113.007 6.45982 114.19 9.39347 113.993 12.8631C113.768 17.1789 111.344 20.6486 106.75 23.3283C104.748 24.4849 103.536 25.4157 103.086 26.121C102.945 26.3466 102.804 26.6569 102.691 27.0236C102.212 28.8007 100.577 29.9573 98.7451 29.8727ZM98.6323 41.5509L98.2659 41.5227C95.7856 41.3817 93.8691 39.2661 94.01 36.7838C94.1509 34.3014 96.2648 32.3833 98.745 32.5243L99.1115 32.5525C101.592 32.6936 103.508 34.8092 103.367 37.2915C103.255 39.7738 101.113 41.692 98.6323 41.5509Z" fill="#181C14"/>
<path fill-rule="evenodd" clip-rule="evenodd" d="M427.775 231.957C428.242 231.957 428.62 232.335 428.62 232.803C428.62 233.253 428.268 233.622 427.824 233.648L427.775 233.649H1.19735C0.73037 233.649 0.351807 233.27 0.351807 232.803C0.351807 232.352 0.703812 231.984 1.14767 231.958L1.19735 231.957H427.775Z" fill="#181C14"/>
</svg>
