<svg width="439" height="218" viewBox="0 0 439 218" fill="none" xmlns="http://www.w3.org/2000/svg">
<path fill-rule="evenodd" clip-rule="evenodd" d="M267.436 137.774H260.721C258.655 137.774 256.976 136.097 256.976 134.033V125.8L246.567 128.329L249.357 139.271C252.301 179.323 199.484 183.71 197.495 140.329L164.772 148.329V148.304L143.413 152.949L157.644 209.697L187.293 202.549C191.374 210.445 194.37 215.916 194.37 215.916H285.877L267.436 137.774Z" fill="#181C14"/>
<path fill-rule="evenodd" clip-rule="evenodd" d="M35.9286 50.2906C43.9173 50.3904 51.1277 51.4252 57.6239 53.3149C58.0348 53.4345 58.2709 53.8642 58.1513 54.2747C58.0317 54.6852 57.6016 54.9211 57.1908 54.8016C51.051 53.0155 44.2473 52.0079 36.7187 51.8523L36.5251 51.8485L36.486 52.0247C36.347 52.658 36.2076 53.3964 36.0772 54.232C35.0437 60.8566 35.1991 68.5366 37.3644 76.5665C37.4758 76.9794 37.231 77.4042 36.8179 77.5155C36.4047 77.6267 35.9795 77.3822 35.8681 76.9694C33.6673 68.8078 33.4855 61.0034 34.509 54.2348L34.5461 53.9935C34.6814 53.1261 34.8267 52.3566 34.9723 51.693L35.0155 51.4998C35.0366 51.4068 35.057 51.3193 35.0766 51.2373L35.1603 50.9022C35.1648 50.8852 35.1687 50.8708 35.1719 50.8592C35.2655 50.5198 35.5764 50.2862 35.9286 50.2906Z" fill="#181C14"/>
<path fill-rule="evenodd" clip-rule="evenodd" d="M56.593 53.8447C56.6682 53.4238 57.0707 53.1435 57.492 53.2187C57.9132 53.2939 58.1937 53.6961 58.1185 54.117C56.6324 62.4274 56.7532 70.5118 58.2717 78.4287C58.3522 78.8486 58.0768 79.2543 57.6565 79.3348C57.2362 79.4153 56.8302 79.1401 56.7497 78.7201C55.1964 70.6214 55.0727 62.3463 56.593 53.8447Z" fill="#181C14"/>
<path fill-rule="evenodd" clip-rule="evenodd" d="M81.3891 6.88707C81.6256 6.62007 82.0141 6.54902 82.3299 6.71499L82.456 6.78277C82.5553 6.83676 82.6718 6.9013 82.805 6.97645L83.0389 7.10953C83.32 7.2708 83.6297 7.45306 83.9662 7.65641L84.1121 7.74485C85.5127 8.59675 87.0714 9.62426 88.7488 10.8297C93.5365 14.2704 98.3228 18.4496 102.791 23.3867C105.569 26.4572 108.139 29.733 110.457 33.2168C110.693 33.5729 110.597 34.0534 110.24 34.2901C109.884 34.5268 109.403 34.43 109.166 34.0739C106.892 30.6558 104.37 27.4402 101.641 24.4252C97.2512 19.5742 92.5469 15.4664 87.844 12.0867C86.2779 10.9613 84.8195 9.99545 83.5028 9.18747L83.3064 9.06745C82.9724 8.86432 82.6651 8.68213 82.3861 8.52077L82.1387 8.37904L82.1359 8.38216C68.6841 23.6952 60.9545 38.8247 58.2012 53.6629L58.1185 54.117C58.0433 54.5379 57.6408 54.8182 57.2195 54.743C56.7983 54.6678 56.5178 54.2656 56.593 53.8447C59.351 38.418 67.3617 22.7218 81.3891 6.88707Z" fill="#181C14"/>
<path fill-rule="evenodd" clip-rule="evenodd" d="M150.893 66.558C159.949 62.755 170.471 62.3909 182.535 66.066C182.886 66.173 183.114 66.5116 183.08 66.877L183.065 67.0331L183.027 67.372L182.983 67.7352C182.932 68.1449 182.869 68.6037 182.793 69.1084C182.528 70.8666 182.162 72.824 181.679 74.9312C180.298 80.952 178.252 86.9737 175.407 92.6008C175.214 92.9824 174.748 93.1356 174.366 92.9428C173.984 92.75 173.831 92.2844 174.024 91.9027C176.807 86.3975 178.814 80.4918 180.169 74.5852C180.643 72.5178 181.002 70.5988 181.261 68.8781L181.313 68.5259C181.354 68.2393 181.391 67.9701 181.423 67.7189L181.467 67.363L181.381 67.3375C170.068 64.0245 160.236 64.3915 151.756 67.8766L151.494 67.9854C144.339 70.9902 138.384 76.1202 133.527 82.7846C130.687 86.6825 128.398 90.8629 126.615 95.0432C125.991 96.5056 125.475 97.8625 125.061 99.0787L124.968 99.3543C124.878 99.6226 124.799 99.8689 124.73 100.092L124.64 100.387L124.583 100.586C124.469 100.999 124.042 101.241 123.63 101.127C123.217 101.014 122.975 100.587 123.089 100.175L123.154 99.9475C123.173 99.8868 123.192 99.8206 123.214 99.749L123.287 99.5158C123.375 99.2347 123.477 98.9221 123.594 98.5802C124.02 97.3283 124.549 95.9352 125.189 94.436C127.016 90.1544 129.36 85.873 132.274 81.8732C137.286 74.9955 143.454 69.682 150.893 66.558Z" fill="#181C14"/>
<path fill-rule="evenodd" clip-rule="evenodd" d="M137.873 9.96243C138.169 9.78485 138.546 9.82354 138.799 10.0574L138.883 10.1367L139.051 10.2986C139.224 10.4678 139.421 10.6652 139.64 10.8905L139.735 10.9887C140.466 11.7466 141.279 12.6458 142.153 13.6838C144.646 16.6434 147.138 20.1251 149.462 24.1078C151.942 28.3573 154.086 32.9355 155.793 37.8291C155.933 38.2328 155.72 38.6742 155.316 38.8149C154.912 38.9556 154.47 38.7423 154.329 38.3386C152.656 33.542 150.555 29.0539 148.123 24.8878C145.846 20.9851 143.406 17.5751 140.968 14.6809L140.651 14.3083C139.972 13.5149 139.336 12.8124 138.753 12.2024L138.619 12.0632C138.527 11.9675 138.438 11.8768 138.354 11.7912L138.162 11.5976L137.87 11.7749C124.954 19.6485 114.772 28.4572 107.101 38.0606L106.864 38.3578C99.9199 47.125 95.1533 56.4285 92.3208 66.1202C92.2008 66.5306 91.7706 66.7662 91.3598 66.6463C90.9491 66.5265 90.7133 66.0966 90.8333 65.6862C97.0348 44.467 112.079 25.4731 137.873 9.96243Z" fill="#181C14"/>
<path fill-rule="evenodd" clip-rule="evenodd" d="M123.915 42.5963C133.19 53.7661 138.53 64.4099 140.404 74.5108C140.482 74.9312 140.204 75.3352 139.783 75.4132C139.362 75.4911 138.958 75.2135 138.88 74.7931C137.093 65.1638 132.044 54.9771 123.265 44.2429L123.104 44.0468L122.813 44.1868C122.602 44.2887 122.377 44.3992 122.137 44.5185L121.841 44.6657L121.381 44.8981C120.061 45.5688 118.612 46.3435 117.064 47.2186C112.119 50.0135 107.174 53.2507 102.562 56.8887C93.2004 64.2735 86.4415 72.3295 83.3916 80.8934C79.6314 91.4519 81.7098 102.285 90.7821 113.362C91.0531 113.692 91.0043 114.18 90.6732 114.451C90.342 114.722 89.8539 114.673 89.5828 114.342C80.173 102.854 77.9859 91.4538 81.9316 80.3743C85.0957 71.4899 92.0319 63.2225 101.602 55.6734C106.281 51.9821 111.291 48.7024 116.301 45.8709L116.851 45.5621C118.396 44.6991 119.838 43.9379 121.147 43.2817L121.447 43.1316C121.741 42.9857 122.014 42.8522 122.265 42.7314L122.59 42.5765L122.999 42.3856C123.317 42.2414 123.692 42.3277 123.915 42.5963Z" fill="#181C14"/>
<path fill-rule="evenodd" clip-rule="evenodd" d="M36.5741 76.4615C53.9714 74.9311 69.5718 80.0199 83.2937 90.0036C88.5678 93.8409 93.3508 98.2585 97.6375 103.045C100.856 106.639 103.562 110.174 105.754 113.447C105.992 113.803 105.897 114.283 105.542 114.521C105.186 114.759 104.705 114.664 104.467 114.308C102.313 111.093 99.6502 107.614 96.4827 104.078C92.2655 99.3687 87.5621 95.0246 82.3815 91.2553C68.9451 81.4793 53.707 76.5087 36.71 78.0039C36.2837 78.0414 35.9077 77.7265 35.8702 77.3006C35.8327 76.8746 36.1478 76.499 36.5741 76.4615Z" fill="#181C14"/>
<path fill-rule="evenodd" clip-rule="evenodd" d="M36.5755 76.4609C37.0018 76.4242 37.3772 76.7397 37.414 77.1657C37.4508 77.5917 37.135 77.9668 36.7087 78.0036C31.9928 78.4102 27.0991 79.3511 22.0345 80.836L21.6803 80.9406L21.8279 81.246C21.8906 81.3746 21.9564 81.5079 22.0252 81.6459L22.2409 82.0739C23.0284 83.6213 23.987 85.3473 25.1208 87.2073C28.3627 92.5256 32.3547 97.8449 37.1282 102.808C41.7448 107.608 46.8616 111.82 52.4929 115.283C52.8574 115.507 52.971 115.983 52.7468 116.348C52.5225 116.712 52.0453 116.825 51.6808 116.601C45.9326 113.067 40.7149 108.772 36.0109 103.881C31.154 98.8311 27.0949 93.4225 23.7973 88.0128C22.6423 86.118 21.6645 84.3574 20.8596 82.7758L20.7096 82.4791C20.5394 82.1402 20.386 81.8266 20.2493 81.5397L20.1362 81.3004C20.094 81.2103 20.0553 81.127 20.0203 81.0506L19.8986 80.7804L19.8923 80.7657C19.7089 80.3427 19.9338 79.8543 20.3747 79.7183C25.9711 77.9918 31.3746 76.9094 36.5755 76.4609Z" fill="#181C14"/>
<path fill-rule="evenodd" clip-rule="evenodd" d="M164.307 113.052C166.773 113.052 168.781 115.03 168.826 117.483L168.827 117.568V131.22C168.827 133.683 166.847 135.69 164.392 135.735L164.307 135.736L158.262 135.735L154.396 152.707C154.304 153.109 153.915 153.367 153.513 153.299L153.468 153.291C153.066 153.199 152.809 152.81 152.876 152.408L152.885 152.364L156.888 134.79C156.965 134.453 157.255 134.209 157.597 134.189L157.643 134.187H164.307C165.92 134.187 167.236 132.897 167.276 131.295L167.277 131.22V117.568C167.277 115.956 165.986 114.641 164.382 114.601L164.307 114.6H150.541C150.113 114.6 149.766 114.254 149.766 113.826C149.766 113.414 150.089 113.077 150.495 113.053L150.541 113.052H164.307Z" fill="#181C14"/>
<path fill-rule="evenodd" clip-rule="evenodd" d="M114.822 113.078C115.25 113.078 115.597 113.424 115.597 113.852C115.597 114.264 115.274 114.601 114.867 114.625L114.822 114.626H55.367C53.7539 114.626 52.4379 115.916 52.3978 117.518L52.3968 117.594V131.245C52.3968 132.857 53.688 134.172 55.2916 134.212L55.367 134.213H61.5914C61.9373 134.213 62.2392 134.442 62.3351 134.77L62.3469 134.815L80.9168 216.312C81.0118 216.729 80.7505 217.144 80.3333 217.239C79.931 217.331 79.5305 217.091 79.4172 216.7L79.4058 216.656L60.9731 135.762H55.367C52.9012 135.762 50.8933 133.783 50.848 131.33L50.8472 131.245V117.594C50.8472 115.13 52.8271 113.124 55.2821 113.078L55.367 113.078H114.822Z" fill="#181C14"/>
<path fill-rule="evenodd" clip-rule="evenodd" d="M165.083 148.368L165.131 148.396L232.85 190.744C233.445 191.116 233.278 192.023 232.59 192.16L230.135 192.655C229.253 192.834 228.283 193.032 227.228 193.25L224.359 193.844C220.864 194.573 217.086 195.375 213.086 196.242C198.804 199.337 184.522 202.638 171.149 206.015L170.172 206.263C156.884 209.633 145.231 212.901 135.671 215.999L134.71 216.312C133.915 216.572 133.136 216.831 132.374 217.089C131.968 217.226 131.529 217.008 131.392 216.603C131.255 216.198 131.472 215.759 131.878 215.622L132.806 215.31C133.586 215.05 134.381 214.789 135.193 214.526L135.89 214.301C145.353 211.258 156.794 208.059 169.791 204.762C183.138 201.376 197.414 198.065 211.711 194.956L213.714 194.522C217.841 193.63 221.722 192.81 225.291 192.069L229.147 191.275L230.378 191.025L164.581 149.878L163.636 150.099C163.229 150.194 162.784 150.3 162.302 150.415L161.403 150.631C159.575 151.072 157.575 151.566 155.442 152.109C148.33 153.916 141.177 155.885 134.445 157.947C134.036 158.072 133.602 157.843 133.477 157.434C133.351 157.025 133.581 156.592 133.991 156.467C140.479 154.479 147.352 152.58 154.204 150.827L155.06 150.608C157.319 150.034 159.427 149.513 161.343 149.053L162.968 148.665L164.548 148.297C164.729 148.256 164.919 148.281 165.083 148.368Z" fill="#181C14"/>
<path fill-rule="evenodd" clip-rule="evenodd" d="M138.366 88.6522C142.728 87.2183 147.135 87.3764 151.58 89.2984L154.87 90.7502C165.147 95.2971 170.41 97.8687 173.991 100.356L174.099 100.432C176.459 102.085 177.739 103.54 177.821 104.972C177.917 106.632 176.467 107.822 173.631 108.651L173.507 108.687C169.785 109.746 164.059 112.954 156.917 117.79C155.348 118.852 153.727 119.983 152.062 121.172C148.093 124.009 144.061 127.049 140.176 130.089L139.467 130.646C138.614 131.316 137.811 131.953 137.066 132.55L136.219 133.23L135.383 133.907L135.389 134.936L135.394 136.049C135.415 141.85 135.375 148.378 135.234 154.64L135.201 156.031C135.014 163.483 134.695 169.314 134.219 172.955L134.185 173.206C133.285 179.961 131.493 187.244 129.42 193.004C129.275 193.407 128.831 193.616 128.429 193.471C128.026 193.326 127.817 192.883 127.962 192.48C129.961 186.924 131.701 179.903 132.601 173.356L132.682 172.756C133.166 169.057 133.488 162.985 133.671 155.209L133.699 154C133.828 147.938 133.864 141.656 133.844 136.055L133.83 133.549C133.828 133.315 133.932 133.093 134.113 132.944L135.008 132.217L135.498 131.822C136.54 130.984 137.708 130.055 138.98 129.058L139.22 128.87C143.122 125.817 147.172 122.764 151.161 119.913C152.835 118.716 154.467 117.578 156.048 116.508L156.698 116.069C163.527 111.485 169.039 108.411 172.844 107.267L173.308 107.132C175.442 106.494 176.315 105.768 176.274 105.06C176.228 104.262 175.202 103.095 173.21 101.699L172.999 101.553C169.673 99.2643 164.735 96.8285 155.451 92.7021L151.131 90.7921C146.98 88.954 142.91 88.7884 138.85 90.1231C133.821 91.7727 130.477 94.0158 126.799 98.2973L126.663 98.4568C123.385 102.309 120.361 106.881 112.623 119.443L111.892 120.632L111.872 120.661C97.9725 141.12 88.6615 164.19 85.6987 183.72C82.9234 202.014 86.2375 214.319 94.2901 215.695C94.7119 215.768 94.9954 216.168 94.9232 216.589C94.8511 217.011 94.4506 217.294 94.0288 217.222C84.8122 215.646 81.2784 202.525 84.1666 183.488C87.1348 163.922 96.376 140.903 110.171 120.412L110.583 119.801L111.764 117.884C119.133 105.934 122.136 101.407 125.379 97.5758L125.482 97.4538C129.397 92.8527 133.003 90.4116 138.366 88.6522Z" fill="#181C14"/>
<path fill-rule="evenodd" clip-rule="evenodd" d="M185.956 80.355L186.001 80.3567C186.428 80.3848 186.751 80.7535 186.723 81.1802C186.025 91.7528 187.291 105.996 189.553 118.123C189.631 118.543 189.354 118.947 188.933 119.026C188.512 119.104 188.108 118.827 188.029 118.407C185.746 106.163 184.469 91.798 185.177 81.0782C185.204 80.6668 185.548 80.3518 185.956 80.355Z" fill="#181C14"/>
<path fill-rule="evenodd" clip-rule="evenodd" d="M249.127 94.5061C249.165 94.0802 249.541 93.7656 249.967 93.8034C252.365 94.0159 254.657 94.6978 256.462 96.0484C258.979 97.9316 260.167 100.87 259.629 104.923C259.141 108.554 257.318 110.822 254.487 111.824C252.347 112.581 249.786 112.572 247.062 112.031C246.642 111.947 246.369 111.54 246.453 111.12C246.536 110.701 246.944 110.429 247.364 110.512C249.839 111.004 252.139 111.012 253.969 110.364C256.25 109.557 257.682 107.776 258.093 104.718C258.558 101.214 257.594 98.8301 255.533 97.2878C253.998 96.1395 251.967 95.5351 249.83 95.3457C249.404 95.3079 249.089 94.932 249.127 94.5061Z" fill="#181C14"/>
<path fill-rule="evenodd" clip-rule="evenodd" d="M244.955 122.03C245.355 121.929 245.762 122.158 245.885 122.546L245.897 122.59L250.107 139.106C250.118 139.15 250.126 139.195 250.129 139.24C250.822 148.669 248.504 156.656 243.732 162.517C239.358 167.889 233.117 171.171 226.378 171.806C219.62 172.443 212.885 170.37 207.601 165.858C201.821 160.924 198.062 153.381 196.983 143.77C196.935 143.345 197.242 142.962 197.667 142.915C198.092 142.867 198.475 143.173 198.523 143.598C199.56 152.831 203.138 160.012 208.608 164.681C213.569 168.917 219.888 170.863 226.233 170.265C232.561 169.668 238.421 166.587 242.53 161.54C246.999 156.051 249.204 148.552 248.603 139.625L248.588 139.421L244.396 122.972C244.294 122.572 244.523 122.166 244.911 122.043L244.955 122.03Z" fill="#181C14"/>
<path fill-rule="evenodd" clip-rule="evenodd" d="M237.77 95.5835C237.364 95.5511 237.002 95.8386 236.942 96.2413L236.422 99.6964L236.169 101.361C235.889 103.206 235.608 105.033 235.336 106.777L234.99 108.982C234.649 111.144 234.35 112.993 234.101 114.463L233.913 115.56L233.565 115.48C233.374 115.436 233.171 115.391 232.958 115.344L232.795 115.309C231.234 114.973 229.429 114.637 227.401 114.323C219.711 113.135 211.094 112.592 201.898 113.053L201.271 113.109L200.605 113.173C200.212 113.212 199.792 113.256 199.352 113.303C197.622 113.49 195.892 113.705 194.257 113.949L193.813 114.016C190.959 114.456 188.708 114.939 187.257 115.474C186.923 115.598 186.716 115.933 186.756 116.287L186.795 116.609L186.836 116.912C186.864 117.12 186.897 117.346 186.933 117.59L186.956 117.738C187.13 118.881 187.356 120.154 187.638 121.523C188.446 125.439 189.547 129.355 190.989 133.017C192.894 137.855 195.253 141.88 198.129 144.819C202.506 149.293 209.06 151.092 216.454 150.394C222.933 149.782 229.522 147.24 233.753 143.822C241.097 137.89 242.894 135.121 244.634 127.877L244.725 127.491C245.215 125.382 245.923 121.521 246.796 116.3L247.097 114.493L247.295 113.284C247.83 110.008 248.384 106.512 248.927 103.004L249.357 100.205L249.787 97.3731C249.853 96.9295 249.53 96.5225 249.082 96.4868L237.77 95.5835ZM238.368 97.1846L248.131 97.9642L247.54 101.832L247.191 104.08C246.817 106.485 246.44 108.872 246.068 111.173L245.633 113.843L245.304 115.829C244.396 121.265 243.665 125.248 243.179 127.299L243.047 127.849C242.234 131.187 241.58 132.984 240.42 134.834L240.357 134.934C238.924 137.185 236.685 139.462 232.779 142.618C228.793 145.838 222.493 148.268 216.308 148.852C209.343 149.51 203.249 147.837 199.237 143.737C196.525 140.965 194.266 137.112 192.431 132.451C191.025 128.879 189.947 125.046 189.156 121.211C188.879 119.868 188.658 118.622 188.488 117.505L188.425 117.085L188.375 116.73L188.473 116.7C189.81 116.293 191.72 115.905 194.049 115.547C195.643 115.302 197.343 115.083 199.052 114.894L199.518 114.843C200.026 114.788 200.506 114.739 200.95 114.695L201.673 114.627L201.99 114.599L201.976 114.6C211.06 114.144 219.573 114.681 227.164 115.854C229.066 116.147 230.767 116.461 232.248 116.776L232.469 116.823C232.95 116.926 233.375 117.023 233.742 117.111L234.155 117.213L234.33 117.258C234.768 117.375 235.213 117.094 235.294 116.648L235.425 115.908C235.683 114.434 236.015 112.416 236.405 109.954L236.786 107.537L237.031 105.958C237.224 104.715 237.42 103.437 237.617 102.147L238.269 97.8419L238.368 97.1846Z" fill="#181C14"/>
<path fill-rule="evenodd" clip-rule="evenodd" d="M248.427 100.665C248.427 100.665 253.825 89.5164 255.4 80.3293C256.898 71.7099 252.352 63.039 244.243 59.7615C237.45 57.0003 235.229 57.9035 235.229 57.9035C235.229 57.9035 239.258 50.7293 228.772 40.1744C225.079 36.4583 219.965 34.3938 214.722 34.5228C201.886 34.8583 197.882 45.697 197.882 45.697C197.882 45.697 184.194 20.4325 155.99 35.297C153.149 36.7938 149.921 40.9744 148.397 43.8132C139.048 60.9228 169.653 81.3099 185.614 82.9615C203.151 84.768 214.154 82.6003 219.5 77.9551C215.497 80.7422 222.677 106.368 248.427 100.665Z" fill="#181C14"/>
<path fill-rule="evenodd" clip-rule="evenodd" d="M201.007 105.569C201.56 105.597 201.989 106.053 201.989 106.6L201.988 106.651L201.236 121.75L205.544 120.354C206.07 120.183 206.633 120.457 206.828 120.967L206.846 121.017C207.016 121.543 206.743 122.105 206.232 122.3L206.182 122.318L200.448 124.176C199.775 124.394 199.093 123.888 199.096 123.19L199.098 123.142L199.924 106.549C199.952 105.997 200.408 105.568 200.956 105.568L201.007 105.569Z" fill="#181C14"/>
<path fill-rule="evenodd" clip-rule="evenodd" d="M210.733 92.043C213.345 91.4786 215.641 92.0323 217.544 93.2953C218.027 93.6154 218.447 93.959 218.805 94.3049L218.91 94.4088C219.077 94.5761 219.199 94.7133 219.275 94.8086C219.63 95.2544 219.557 95.9039 219.111 96.2592C218.665 96.6145 218.015 96.5411 217.659 96.0953C217.621 96.0476 217.523 95.9386 217.368 95.7885C217.097 95.5265 216.773 95.2622 216.401 95.0151C214.936 94.0426 213.196 93.6231 211.169 94.0609C210.612 94.1814 210.062 93.8273 209.941 93.2701C209.821 92.7129 210.175 92.1635 210.733 92.043Z" fill="#181C14"/>
<path fill-rule="evenodd" clip-rule="evenodd" d="M193.612 88.1529C194.614 87.9481 195.65 88.0028 196.643 88.2134L196.803 88.2489C197.06 88.308 197.26 88.3661 197.391 88.411C197.931 88.5958 198.218 89.1828 198.033 89.7221C197.854 90.2446 197.297 90.5306 196.772 90.3799L196.66 90.3451C196.644 90.3404 196.626 90.335 196.605 90.329C196.491 90.2967 196.36 90.2639 196.214 90.2329C195.475 90.0763 194.709 90.0359 194.026 90.1755C193.057 90.3737 192.371 90.9047 191.976 91.9271C191.771 92.4589 191.172 92.7236 190.64 92.5182C190.108 92.3128 189.843 91.7152 190.049 91.1833C190.71 89.4718 191.983 88.486 193.612 88.1529Z" fill="#181C14"/>
<path fill-rule="evenodd" clip-rule="evenodd" d="M219.732 126.368C218.828 125.129 210.021 131.297 213.456 131.865C216.891 132.407 221.669 129.026 219.732 126.368Z" fill="#181C14"/>
<path fill-rule="evenodd" clip-rule="evenodd" d="M182.799 125.232L216.246 113.929C216.246 113.929 220.714 112.226 220.559 106.42C220.404 100.613 213.095 98.4453 213.095 98.4453L177.427 93.4131L182.799 125.232Z" fill="#181C14"/>
<path fill-rule="evenodd" clip-rule="evenodd" d="M147.002 125.232L180.449 113.929C180.449 113.929 184.917 112.226 184.762 106.42C184.607 100.613 177.298 98.4453 177.298 98.4453L160.045 99.5808L141.63 93.4131L147.002 125.232Z" fill="#181C14"/>
<path fill-rule="evenodd" clip-rule="evenodd" d="M177.091 126.265C186.206 126.265 193.595 118.882 193.595 109.775C193.595 100.667 186.206 93.2842 177.091 93.2842C167.977 93.2842 160.588 100.667 160.588 109.775C160.588 118.882 167.977 126.265 177.091 126.265Z" fill="#181C14"/>
<path fill-rule="evenodd" clip-rule="evenodd" d="M141.036 126.497C150.151 126.497 157.54 119.114 157.54 110.007C157.54 100.9 150.151 93.5166 141.036 93.5166C131.921 93.5166 124.532 100.9 124.532 110.007C124.532 119.114 131.921 126.497 141.036 126.497Z" fill="#181C14"/>
<path fill-rule="evenodd" clip-rule="evenodd" d="M163.764 82.1853L164.091 82.1167C168.071 81.2945 172.046 80.9216 173.665 81.1635C175.68 81.4567 176.078 83.3693 174.743 85.2181C173.436 87.0275 170.714 88.7219 166.961 89.8699C166.552 89.9951 166.119 89.7651 165.994 89.3563C165.868 88.9474 166.099 88.5145 166.508 88.3893C169.962 87.3324 172.401 85.8145 173.486 84.3121C174.206 83.3156 174.12 82.8142 173.478 82.7017L173.438 82.6953C172.018 82.4831 168.112 82.8553 164.242 83.667L164.087 83.6997C159.107 84.7596 154.731 86.3742 151.841 88.4195C151.492 88.6666 151.008 88.584 150.761 88.2351C150.513 87.8862 150.596 87.403 150.945 87.1559C154.039 84.9668 158.597 83.2852 163.764 82.1853Z" fill="#181C14"/>
<path fill-rule="evenodd" clip-rule="evenodd" d="M155.367 87.4228C159.106 86.5068 164.27 87.4332 170 89.6502L170.2 89.728C174.597 91.448 179.017 93.872 180.468 95.2308L180.517 95.2772C181.41 96.1226 181.516 97.2508 180.763 98.1416C180.115 98.9084 178.905 99.4087 177.341 99.5737C173.752 99.9522 168.779 98.6176 163.177 95.405L162.988 95.2961L162.817 95.186L162.675 95.0976C162.6 95.0515 162.519 95.0026 162.431 94.9514C162.014 94.7063 161.554 94.4608 161.066 94.232C160.045 93.7539 159.046 93.4158 158.131 93.2777C157.676 93.209 157.252 93.1919 156.866 93.2292C156.44 93.2703 156.061 92.9586 156.02 92.533C155.979 92.1074 156.291 91.7291 156.717 91.688C157.238 91.6377 157.788 91.6599 158.362 91.7467C159.444 91.91 160.579 92.2937 161.724 92.8301C162.258 93.0805 162.76 93.3484 163.217 93.6167L163.41 93.7319C163.549 93.816 163.662 93.8871 163.746 93.9416L163.784 93.967L163.948 94.0618C169.227 97.089 173.84 98.3461 177.067 98.0449L177.178 98.0339C178.381 97.9069 179.23 97.5562 179.579 97.1426C179.776 96.9097 179.767 96.7159 179.484 96.4335L179.446 96.3961C178.221 95.2145 173.908 92.8414 169.635 91.1698C164.098 89.0034 159.132 88.0948 155.736 88.9267C155.32 89.0285 154.901 88.7744 154.799 88.3591C154.697 87.9438 154.951 87.5246 155.367 87.4228Z" fill="#181C14"/>
<path fill-rule="evenodd" clip-rule="evenodd" d="M147.56 87.3668C151.305 86.5487 156.427 87.5091 162.078 89.7108L162.28 89.79C166.63 91.5042 170.98 93.892 172.41 95.2309L172.459 95.2772C173.352 96.1225 173.458 97.2507 172.705 98.1416C172.057 98.9084 170.847 99.4086 169.282 99.5737C165.694 99.9522 160.721 98.6175 155.119 95.405L154.93 95.296L154.759 95.186L154.617 95.0976C154.542 95.0515 154.46 95.0026 154.373 94.9514C153.956 94.7062 153.496 94.4607 153.008 94.232C151.987 93.7538 150.987 93.4157 150.073 93.2776C149.618 93.209 149.194 93.1919 148.807 93.2292C148.381 93.2703 148.003 92.9585 147.962 92.5329C147.921 92.1073 148.233 91.729 148.659 91.688C149.18 91.6377 149.73 91.6599 150.304 91.7466C151.386 91.91 152.521 92.2937 153.666 92.83C154.2 93.0805 154.702 93.3484 155.159 93.6167L155.352 93.7318C155.491 93.816 155.604 93.887 155.687 93.9416L155.726 93.967L155.89 94.0617C161.168 97.089 165.782 98.346 169.009 98.0448L169.12 98.0338C170.323 97.9069 171.172 97.5561 171.521 97.1425C171.718 96.9096 171.709 96.7159 171.426 96.4335L171.388 96.3962C170.183 95.2338 165.94 92.8964 161.711 91.2304L161.317 91.0768C156.005 89.0314 151.225 88.1511 147.891 88.8794C147.473 88.9707 147.06 88.7062 146.969 88.2885C146.877 87.8707 147.142 87.4581 147.56 87.3668Z" fill="#181C14"/>
<path fill-rule="evenodd" clip-rule="evenodd" d="M138.919 88.4832C142.533 86.7522 148.04 87.4172 154.457 89.7774L154.766 89.8922C159.459 91.6541 164.322 94.2815 165.821 95.7161C166.714 96.5614 166.82 97.6896 166.067 98.5804C165.419 99.3473 164.21 99.8475 162.645 100.013C159.056 100.391 154.083 99.0564 148.482 95.8439L148.292 95.7349L148.121 95.6249L147.979 95.5365C147.904 95.4903 147.823 95.4414 147.736 95.3902C147.318 95.1451 146.858 94.8996 146.37 94.6708C145.349 94.1927 144.35 93.8546 143.435 93.7165C142.98 93.6478 142.557 93.6307 142.17 93.6681C141.744 93.7091 141.365 93.3974 141.324 92.9718C141.283 92.5462 141.595 92.1679 142.021 92.1268C142.542 92.0766 143.092 92.0988 143.667 92.1855C144.748 92.3488 145.883 92.7326 147.028 93.2689C147.562 93.5194 148.065 93.7873 148.521 94.0556L148.714 94.1707C148.854 94.2549 148.966 94.3259 149.05 94.3805L149.088 94.4058L149.252 94.5006C154.531 97.5279 159.144 98.7849 162.371 98.4837L162.482 98.4727C163.686 98.3458 164.534 97.995 164.884 97.5814C165.089 97.3384 165.07 97.138 164.752 96.8373L164.66 96.7521C163.208 95.447 158.531 92.9435 154.07 91.2854L153.921 91.2304C147.867 89.0037 142.716 88.3816 139.589 89.8794C139.203 90.0643 138.741 89.9016 138.556 89.516C138.371 89.1305 138.533 88.6681 138.919 88.4832Z" fill="#181C14"/>
<path fill-rule="evenodd" clip-rule="evenodd" d="M274.344 12.5489C281.565 11.1978 288.62 15.4984 290.204 22.2071L290.25 22.4111L295.364 46.1015C295.454 46.5194 295.188 46.9313 294.77 47.0215C294.366 47.1084 293.969 46.8644 293.86 46.4721L293.849 46.4279L288.735 22.7391C287.432 16.7557 281.12 12.8563 274.629 14.0708C268.202 15.2734 264.036 20.9911 265.212 26.9026L265.249 27.0818L272.894 62.4367C272.984 62.8546 272.718 63.2666 272.3 63.3569C271.897 63.444 271.499 63.2001 271.39 62.8078L271.379 62.7637L263.734 27.4094C262.247 20.5564 267.018 13.9197 274.344 12.5489Z" fill="#181C14"/>
<path fill-rule="evenodd" clip-rule="evenodd" d="M303.078 12.7176C303.299 5.74667 309.558 0.265769 316.996 0.484344C324.387 0.700753 330.222 6.3763 330.124 13.2487L329.292 47.9864C329.282 48.4138 328.927 48.7521 328.499 48.7419C328.087 48.732 327.757 48.4017 327.743 47.9949L327.743 47.9494L328.57 13.4144C328.762 7.32592 323.584 2.22631 316.95 2.03206C310.409 1.83984 304.93 6.57814 304.634 12.5844L304.627 12.7668L303.594 45.1023C303.58 45.5296 303.222 45.865 302.795 45.8514C302.382 45.8382 302.055 45.5053 302.045 45.0984L302.045 45.0529L303.078 12.7176Z" fill="#181C14"/>
<path fill-rule="evenodd" clip-rule="evenodd" d="M341.139 22.3579C342.626 15.5341 349.751 11.1324 357.045 12.4971C364.291 13.8529 369.048 20.3916 367.698 27.1521L367.655 27.357L360.397 60.9312C360.307 61.3491 359.895 61.6148 359.476 61.5245C359.073 61.4375 358.811 61.0513 358.874 60.6491L358.883 60.6043L366.14 27.0289C367.438 21.0737 363.244 15.2324 356.76 14.019C350.334 12.8167 344.084 16.6265 342.689 22.5294L342.649 22.7089L336.579 47.1734C336.476 47.5884 336.056 47.8414 335.641 47.7386C335.24 47.6394 334.99 47.2454 335.065 46.8453L335.075 46.8008L341.139 22.3579Z" fill="#181C14"/>
<path fill-rule="evenodd" clip-rule="evenodd" d="M373.343 46.4145C376.691 40.1905 384.78 37.6763 391.449 40.7624C398.083 43.8323 400.824 51.2949 397.613 57.5141L397.514 57.7022L365.694 116.902C365.492 117.279 365.022 117.42 364.645 117.218C364.282 117.023 364.138 116.581 364.308 116.212L364.329 116.17L396.149 56.9693C399.084 51.513 396.704 44.9005 390.798 42.1674C384.92 39.4475 377.805 41.6135 374.798 46.9835L374.708 47.1472L366.624 62.1924C366.422 62.5691 365.952 62.7105 365.575 62.5083C365.212 62.3135 365.067 61.8711 365.238 61.5022L365.259 61.46L373.343 46.4145Z" fill="#181C14"/>
<path fill-rule="evenodd" clip-rule="evenodd" d="M258.985 102.795C259.348 102.601 259.798 102.725 260.011 103.07L260.035 103.111L267.008 116.092C267.21 116.469 267.069 116.938 266.692 117.14C266.329 117.335 265.88 117.211 265.666 116.865L265.643 116.824L258.669 103.844C258.467 103.467 258.608 102.998 258.985 102.795Z" fill="#181C14"/>
<path fill-rule="evenodd" clip-rule="evenodd" d="M239.94 40.7624C246.542 37.7072 254.536 40.1407 257.944 46.2291L258.046 46.4147L267.602 64.1954C267.804 64.5721 267.663 65.0414 267.286 65.2437C266.923 65.4385 266.474 65.3146 266.26 64.9688L266.237 64.9279L256.681 47.1475C253.728 41.6577 246.528 39.42 240.591 42.1674C234.744 44.8732 232.353 51.3812 235.154 56.8053L235.24 56.9694L255.85 95.292C256.053 95.6686 255.912 96.138 255.535 96.3404C255.172 96.5353 254.723 96.4115 254.509 96.0658L254.485 96.0249L233.875 57.7024C230.51 51.4461 233.239 43.8633 239.94 40.7624Z" fill="#181C14"/>
<path fill-rule="evenodd" clip-rule="evenodd" d="M298.667 43.9479C305.598 43.072 311.94 48.8653 312.961 56.8502L312.991 57.0928L315.842 82.0879L321.303 56.9665C322.979 49.1608 329.811 44.5401 336.613 46.6504L336.819 46.7164C343.559 48.9432 347.635 56.9509 346.061 64.6971L346.011 64.9317L341.032 87.8727L350.231 67.6991C353.459 60.5972 361.094 58.0165 367.313 61.9084L367.501 62.0283C373.607 65.9971 375.974 74.8164 372.889 81.8811L372.794 82.0946L356.936 116.933C356.759 117.323 356.299 117.495 355.91 117.318C355.534 117.147 355.361 116.714 355.508 116.334L355.525 116.292L371.383 81.4539C374.301 75.0361 372.166 66.9076 366.656 63.3263C361.275 59.8293 354.654 61.9622 351.729 68.1514L351.641 68.3402L339.451 95.0757C339.072 95.9053 337.834 95.5109 337.979 94.6363L337.988 94.5906L344.497 64.6027C346.041 57.5252 342.352 50.1751 336.333 48.1866C330.448 46.2425 324.449 50.1827 322.865 57.0832L322.818 57.2932L316.361 86.9965C316.179 87.8361 314.98 87.792 314.841 86.9682L314.834 86.9198L311.451 57.268C310.62 49.9644 304.945 44.7153 298.862 45.4841C292.838 46.2454 288.535 52.6379 289.257 59.8413L289.281 60.0599L292.793 90.5889C292.895 91.4754 291.674 91.7928 291.319 91.0006L291.301 90.9571L283.605 71.112C280.996 64.3894 274.374 61.2932 268.82 64.1158C263.252 66.9454 260.755 74.6273 263.251 81.3426L263.329 81.5458L276.811 116.281C276.965 116.68 276.767 117.128 276.368 117.283C275.984 117.432 275.552 117.253 275.383 116.883L275.366 116.841L261.884 82.1055C258.985 74.6343 261.749 65.9725 268.118 62.7356C274.475 59.5048 281.975 62.9495 284.96 70.3276L285.05 70.5524L290.564 84.7712L287.741 60.236C286.827 52.231 291.585 44.9772 298.458 43.9764L298.667 43.9479Z" fill="#181C14"/>
<path fill-rule="evenodd" clip-rule="evenodd" d="M369.945 115.813C372.411 115.813 374.419 117.791 374.464 120.244L374.465 120.329V134.032C374.465 136.496 372.485 138.502 370.03 138.548L369.945 138.548H364.282L353.73 183.294C353.636 183.695 353.244 183.949 352.843 183.879L352.799 183.87C352.397 183.775 352.143 183.384 352.213 182.983L352.222 182.939L362.915 137.597C362.993 137.262 363.283 137.022 363.622 137.001L363.669 137H369.945C371.558 137 372.874 135.71 372.914 134.108L372.915 134.032V120.329C372.915 118.717 371.624 117.402 370.02 117.362L369.945 117.361H260.695C259.082 117.361 257.766 118.652 257.726 120.254L257.725 120.329V134.032C257.725 135.644 259.016 136.959 260.619 136.999L260.695 137H267.41C267.754 137 268.054 137.226 268.152 137.552L268.164 137.597L286.734 216.358C286.832 216.774 286.574 217.191 286.158 217.289C285.756 217.384 285.354 217.147 285.237 216.757L285.226 216.713L266.796 138.548H260.695C258.229 138.548 256.221 136.57 256.176 134.117L256.175 134.032V120.329C256.175 117.865 258.155 115.859 260.61 115.814L260.695 115.813H369.945Z" fill="#181C14"/>
<path fill-rule="evenodd" clip-rule="evenodd" d="M333.379 170.843C335.12 170.099 336.392 170.305 337.636 171.408C337.923 171.663 338.205 171.956 338.567 172.368L338.793 172.629C339.005 172.877 339.668 173.654 339.911 173.928C341.003 175.163 342.039 176.145 343.35 177.102C343.532 177.235 343.718 177.366 343.907 177.495L344.155 177.662C345.575 178.609 346.741 179.254 349.322 180.58L350.293 181.079C351.539 181.722 352.286 182.126 353.133 182.622C356.348 184.503 358.905 186.635 361.432 189.78C361.7 190.113 361.647 190.601 361.313 190.868C360.979 191.136 360.492 191.083 360.224 190.749C357.871 187.821 355.509 185.832 352.54 184.07L352.187 183.863C351.404 183.409 350.669 183.015 349.452 182.388L348.168 181.728C345.696 180.452 344.554 179.805 343.036 178.775C342.831 178.636 342.632 178.495 342.436 178.352C341.087 177.367 340.008 176.358 338.901 175.123L338.636 174.824C338.27 174.403 337.552 173.561 337.555 173.564L337.41 173.398C337.084 173.027 336.839 172.772 336.607 172.566C335.812 171.861 335.178 171.758 333.991 172.265C333.096 172.652 332.903 173.561 333.433 175.205C333.94 176.777 335.075 178.791 336.721 181.151C336.966 181.502 336.879 181.984 336.528 182.229C336.177 182.473 335.694 182.387 335.45 182.036C333.723 179.561 332.523 177.431 331.958 175.679C331.213 173.37 331.585 171.618 333.379 170.843Z" fill="#181C14"/>
<path fill-rule="evenodd" clip-rule="evenodd" d="M307.951 175.788L308.231 175.777C311.004 175.681 315.421 175.897 319.775 176.501C326.244 177.397 332.06 179.028 336.662 181.533C337.038 181.737 337.177 182.208 336.972 182.583C336.767 182.959 336.297 183.097 335.921 182.893C331.579 180.529 326.043 178.959 319.866 178.077L319.562 178.034C315.151 177.423 310.674 177.217 308.022 177.334C306.479 177.409 306.097 178.55 307.352 180.32C307.599 180.669 307.516 181.152 307.167 181.399C306.818 181.646 306.334 181.564 306.087 181.215C304.185 178.53 305.057 175.927 307.951 175.788Z" fill="#181C14"/>
<path fill-rule="evenodd" clip-rule="evenodd" d="M302.889 180.047C305.067 179.881 309.926 180.432 314.941 181.491C321.211 182.814 327.157 184.761 331.873 187.23C332.252 187.429 332.399 187.897 332.2 188.275C332.001 188.654 331.533 188.8 331.154 188.602C326.579 186.207 320.762 184.302 314.621 183.006L314.104 182.898C309.407 181.938 304.937 181.444 303.007 181.591C300.624 181.771 301.098 185.028 305.241 188.344C305.575 188.611 305.629 189.099 305.361 189.432C305.094 189.766 304.606 189.82 304.272 189.553C301.823 187.593 300.354 185.462 300.083 183.602C299.798 181.638 300.915 180.196 302.889 180.047Z" fill="#181C14"/>
<path fill-rule="evenodd" clip-rule="evenodd" d="M305.648 188.046C309.939 187.835 321.26 190.459 329.402 194.1C329.793 194.274 329.968 194.732 329.793 195.123C329.618 195.513 329.16 195.688 328.769 195.513C324.65 193.671 319.932 192.135 315.285 191.035L314.887 190.941C310.908 190.019 307.328 189.514 305.728 189.592C304.542 189.656 303.95 190.547 304.2 192.057C304.518 193.973 306.12 196.29 308.847 198.401C309.185 198.663 309.247 199.149 308.985 199.487C308.723 199.825 308.236 199.887 307.898 199.625C304.886 197.292 303.06 194.653 302.672 192.31C302.28 189.948 303.465 188.163 305.648 188.046Z" fill="#181C14"/>
<path fill-rule="evenodd" clip-rule="evenodd" d="M310.215 196.18C313.146 195.821 321.425 197.899 328.943 201.007C329.338 201.171 329.526 201.623 329.363 202.018C329.199 202.414 328.746 202.601 328.351 202.438L327.913 202.258C320.744 199.346 312.941 197.406 310.401 197.717C309.534 197.82 309.187 198.164 309.221 198.753C309.27 199.606 310.041 200.856 311.523 202.257C315.352 205.874 322.834 209.659 333.415 212.826C333.825 212.949 334.057 213.38 333.935 213.79C333.812 214.199 333.38 214.432 332.97 214.309C322.177 211.079 314.488 207.189 310.458 203.382C308.716 201.736 307.75 200.168 307.674 198.842C307.589 197.368 308.592 196.373 310.215 196.18Z" fill="#181C14"/>
<path fill-rule="evenodd" clip-rule="evenodd" d="M336.604 181.258L336.65 181.26C346.708 181.888 355.161 184.783 361.186 189.321C366.684 193.463 369.79 198.758 369.774 203.774C369.758 208.941 366.449 213.197 360.491 215.346C353.941 217.708 344.573 217.472 332.989 214.315C332.576 214.202 332.332 213.777 332.445 213.364C332.558 212.952 332.984 212.709 333.396 212.821C344.698 215.901 353.754 216.129 359.965 213.889C365.336 211.952 368.21 208.255 368.224 203.769C368.238 199.285 365.388 194.426 360.253 190.558C354.482 186.21 346.32 183.415 336.553 182.805C336.126 182.779 335.802 182.411 335.828 181.984C335.854 181.573 336.197 181.256 336.604 181.258Z" fill="#181C14"/>
<path fill-rule="evenodd" clip-rule="evenodd" d="M437.897 215.917C438.325 215.917 438.672 216.263 438.672 216.691C438.672 217.103 438.349 217.44 437.942 217.464L437.897 217.465H1.00016C0.572242 217.465 0.225342 217.118 0.225342 216.691C0.225342 216.278 0.547906 215.941 0.954638 215.918L1.00016 215.917H437.897Z" fill="#181C14"/>
</svg>
